<?xml version="1.0" encoding="utf-8"?>
<!-- Generator: Adobe Illustrator 21.0.0, SVG Export Plug-In . SVG Version: 6.00 Build 0)  -->
<svg version="1.1" id="Layer_1" xmlns="http://www.w3.org/2000/svg" xmlns:xlink="http://www.w3.org/1999/xlink" x="0px" y="0px"
	 viewBox="0 0 595.3 841.9" style="enable-background:new 0 0 595.3 841.9;" xml:space="preserve">
<style type="text/css">
	.st0{fill:url(#SVGID_1_);}
	.st1{fill:#FFFFFF;}
	.st2{fill-rule:evenodd;clip-rule:evenodd;}
</style>
<g>
	<path d="M321,434.9h-42.7c0,0,0.1,0,0.1,0.1c-1.7,0.2-3.1,0.8-3.4,1.6l-2.3,6.4c-0.3,0.9,1.4,1.6,3.9,1.6H324
		c2.5,0,4.2-0.7,3.9-1.6l-2.3-6.4C325.3,435.6,323.3,434.9,321,434.9"/>
	<linearGradient id="SVGID_1_" gradientUnits="userSpaceOnUse" x1="278.3389" y1="434.8765" x2="278.3389" y2="434.8765">
		<stop  offset="0" style="stop-color:#005ECA"/>
		<stop  offset="0.2602" style="stop-color:#0052AB"/>
		<stop  offset="0.5542" style="stop-color:#00468E"/>
		<stop  offset="0.8109" style="stop-color:#003F7D"/>
		<stop  offset="1" style="stop-color:#003D77"/>
	</linearGradient>
	<path class="st0" d="M278.3,434.9"/>
	<path class="st1" d="M313.2,436.1c1.3,0,2.4,0.4,2.5,0.9c0.1,0.5-0.9,0.9-2.2,0.9c-1.3,0-2.4-0.4-2.5-0.9
		C310.9,436.5,311.9,436.1,313.2,436.1z"/>
	<path class="st1" d="M312.8,439.5c0.1,0.5-0.9,0.9-2.3,0.9c-1.4,0-2.5-0.4-2.6-0.9c-0.1-0.5,1-0.9,2.3-0.9
		C311.6,438.6,312.7,439,312.8,439.5z"/>
	<path class="st1" d="M306.8,436.1c1.3,0,2.4,0.4,2.4,0.9c0.1,0.5-0.9,0.9-2.3,0.9c-1.3,0-2.4-0.4-2.4-0.9
		C304.5,436.5,305.5,436.1,306.8,436.1z"/>
	<path class="st1" d="M306,439.5c0,0.5-1,0.9-2.4,0.9c-1.4,0-2.5-0.4-2.5-0.9c0-0.5,1.1-0.9,2.4-0.9C304.9,438.6,306,439,306,439.5z
		"/>
	<path class="st1" d="M300.3,436.1c1.3,0,2.3,0.4,2.3,0.9c0,0.5-1,0.9-2.3,0.9c-1.3,0-2.4-0.4-2.3-0.9
		C298,436.5,299,436.1,300.3,436.1z"/>
	<path class="st1" d="M299.3,439.5c0,0.5-1.1,0.9-2.5,0.9c-1.4,0-2.4-0.4-2.4-0.9c0-0.5,1.2-0.9,2.5-0.9
		C298.2,438.6,299.3,439,299.3,439.5z"/>
	<path class="st1" d="M293.9,436.1c1.3,0,2.3,0.4,2.3,0.9c0,0.5-1.1,0.9-2.4,0.9c-1.3,0-2.3-0.4-2.3-0.9
		C291.5,436.5,292.6,436.1,293.9,436.1z"/>
	<path class="st1" d="M292.5,439.5c-0.1,0.5-1.2,0.9-2.6,0.9c-1.4,0-2.4-0.4-2.3-0.9c0.1-0.5,1.2-0.9,2.6-0.9
		C291.6,438.6,292.6,439,292.5,439.5z"/>
	<path class="st1" d="M287.5,436.1c1.3,0,2.3,0.4,2.2,0.9c-0.1,0.5-1.2,0.9-2.5,0.9c-1.3,0-2.3-0.4-2.2-0.9
		C285,436.5,286.2,436.1,287.5,436.1z"/>
	<path class="st1" d="M278.4,437c0.2-0.5,1.3-0.9,2.6-0.9c1.3,0,2.2,0.4,2.1,0.9c-0.1,0.5-1.3,0.9-2.6,0.9
		C279.2,437.9,278.2,437.5,278.4,437z"/>
	<path class="st1" d="M280.9,439.5c0.1-0.5,1.3-0.9,2.6-0.9c1.3,0,2.3,0.4,2.2,0.9c-0.1,0.5-1.3,0.9-2.7,0.9
		C281.8,440.5,280.8,440,280.9,439.5z"/>
	<path class="st1" d="M314.5,443.4h-28.3c-1.3,0-2.2-0.4-2.1-0.8c0.1-0.5,1.2-0.8,2.4-0.8h27.7c1.2,0,2.3,0.4,2.4,0.8
		C316.7,443,315.8,443.4,314.5,443.4z"/>
	<path class="st1" d="M317.4,440.5c-1.4,0-2.5-0.4-2.7-0.9c-0.1-0.5,0.9-0.9,2.2-0.9c1.3,0,2.5,0.4,2.6,0.9
		C319.7,440,318.7,440.5,317.4,440.5z"/>
	<path class="st1" d="M322.2,437c0.2,0.5-0.8,0.9-2.1,0.9c-1.3,0-2.5-0.4-2.6-0.9c-0.1-0.5,0.8-0.9,2.1-0.9
		C320.9,436.1,322.1,436.5,322.2,437z"/>
</g>
<path class="st2" d="M321.2,403.9h-37.6h-1.7v1.7v21.3v1.7h1.7h37.6h1.7v-1.7v-21.3v-1.7H321.2L321.2,403.9z M287.7,434.9h-17.7V396
	h17.7v5.3h-5.1h-3.2h-7.1h-0.8v0.8v4.8v0.8h0.8h7.1v1.5h-7.1h-0.8v0.8v4.8v0.8h0.8h7.1v15.5h8.3V434.9L287.7,434.9z M274.9,418h-3.3
	v1.9h3.3V418L274.9,418z M274.9,421.1h-3.3v1.9h3.3V421.1L274.9,421.1z M279.4,402.9H273v3.2h6.3V402.9L279.4,402.9z M279.4,410.8
	H273v3.2h6.3V410.8L279.4,410.8z M312.1,432.9h-3v-3.2H296v3.2h-2.6v2h18.8V432.9L312.1,432.9z M286.5,408.1h31.7v16.3h-31.7V408.1z
	"/>
</svg>
