<?xml version="1.0" encoding="utf-8"?>
<!-- Generator: Adobe Illustrator 21.0.0, SVG Export Plug-In . SVG Version: 6.00 Build 0)  -->
<svg version="1.1" id="Layer_1" xmlns="http://www.w3.org/2000/svg" xmlns:xlink="http://www.w3.org/1999/xlink" x="0px" y="0px"
	 viewBox="0 0 595.3 841.9" style="enable-background:new 0 0 595.3 841.9;" xml:space="preserve">
<style type="text/css">
	.st0{fill-rule:evenodd;clip-rule:evenodd;fill:#FF8D6D;}
</style>
<g>
	<polygon class="st0" points="284,410.9 300.2,410.9 300.2,414.9 284,414.9 284,410.9 	"/>
	<polygon class="st0" points="302.1,410.9 311,410.9 311,414.9 302.1,414.9 302.1,410.9 	"/>
	<polygon class="st0" points="311,420 294.8,420 294.8,416 311,416 311,420 	"/>
	<polygon class="st0" points="292.9,420 284,420 284,416 292.9,416 292.9,420 	"/>
	<polygon class="st0" points="284,421.1 300.2,421.1 300.2,425.1 284,425.1 284,421.1 	"/>
	<polygon class="st0" points="302.1,421.1 311,421.1 311,425.1 302.1,425.1 302.1,421.1 	"/>
	<polygon class="st0" points="311,430.2 294.8,430.2 294.8,426.2 311,426.2 311,430.2 	"/>
	<polygon class="st0" points="292.9,430.2 284,430.2 284,426.2 292.9,426.2 292.9,430.2 	"/>
</g>
</svg>
